# xmcd
#
# Track frame offsets:
#	225
#	13462
#	28589
#	41504
#	54939
#	63355
#	77872
#	90469
#	104168
#	114628
#	127086
#	140212
#	153618
#	166045
#	180774
#
# Disc length: 2666 seconds
#
# Revision: 1
# Processed by: cddbd v1.5.2PL0 Copyright (c) Steve Scherf et al.
# Submitted via: audiograbber 1.83.01
#
DISCID=cb0a670f
DTITLE=TJ Stuart - Rosin On The Bow
DYEAR=1900
DGENRE=
TTITLE0=Rosin On The Bow
TTITLE1=The Portrait
TTITLE2=Going Home To Ireland In The Spring
TTITLE3=Midnight Teardrops
TTITLE4=The Songwriter
TTITLE5=Golden Anniversary
TTITLE6=The Girl I Left Behind
TTITLE7=Homeward Bound
TTITLE8=If I Could Stop The Hands Of Time
TTITLE9=Back To County Antrim
TTITLE10=Every Rose Will Have Its Thorn
TTITLE11=Folks From County Down
TTITLE12=The Man Who Calms The Sea
TTITLE13=Let The Showband Play
TTITLE14=Knocklayde Mountain
EXTD=
EXTT0=
EXTT1=
EXTT2=
EXTT3=
EXTT4=
EXTT5=
EXTT6=
EXTT7=
EXTT8=
EXTT9=
EXTT10=
EXTT11=
EXTT12=
EXTT13=
EXTT14=
PLAYORDER=
